<svg width="242" height="322" xmlns="http://www.w3.org/2000/svg" xmlns:xlink="http://www.w3.org/1999/xlink" xml:space="preserve" overflow="hidden"><defs><clipPath id="clip0"><rect x="519" y="199" width="242" height="322"/></clipPath><clipPath id="clip1"><path d="M519.213 520.98 760.787 520.98 760.787 199 519.213 199 519.213 520.98 519.213 520.98Z" fill-rule="evenodd" clip-rule="evenodd"/></clipPath><clipPath id="clip2"><path d="M519.213 520.98 760.787 520.98 760.787 199 519.213 199 519.213 520.98 519.213 520.98Z" fill-rule="evenodd" clip-rule="evenodd"/></clipPath><clipPath id="clip3"><path d="M519.213 520.98 760.787 520.98 760.787 199 519.213 199 519.213 520.98 519.213 520.98Z" fill-rule="evenodd" clip-rule="evenodd"/></clipPath><clipPath id="clip4"><path d="M519.213 520.98 760.787 520.98 760.787 199 519.213 199 519.213 520.98 519.213 520.98Z" fill-rule="evenodd" clip-rule="evenodd"/></clipPath></defs><g clip-path="url(#clip0)" transform="translate(-519 -199)"><path d="M560.015 199 560.015 328.558" stroke="#7E7E7F" stroke-width="1.00006" stroke-miterlimit="8" fill="none"/><g clip-path="url(#clip1)"><path d="M721.305 199 721.305 328.558" stroke="#7E7E7F" stroke-width="1.00006" stroke-miterlimit="8" fill="none"/><g clip-path="url(#clip2)"><path d="M519.693 404.273C519.693 340.079 573.556 288.046 640 288.046 706.444 288.046 760.307 340.049 760.307 404.273 760.307 468.497 706.444 520.5 640 520.5 573.556 520.5 519.693 468.497 519.693 404.273Z" fill="#508275" fill-rule="evenodd"/><path d="M519.693 404.273C519.693 340.079 573.556 288.046 640 288.046 706.444 288.046 760.307 340.049 760.307 404.273 760.307 468.497 706.444 520.5 640 520.5 573.556 520.5 519.693 468.497 519.693 404.273Z" stroke="#040000" stroke-width="1.00006" stroke-miterlimit="8" fill="none"/><g clip-path="url(#clip3)"><path d="M559.055 404.093C559.055 360.48 595.457 325.088 640.36 325.088 685.263 325.088 721.665 360.44 721.665 404.093 721.665 447.745 685.263 483.098 640.36 483.098 595.457 483.098 559.055 447.735 559.055 404.093Z" fill="#FFFFFF" fill-rule="evenodd"/><path d="M559.055 404.093C559.055 360.48 595.457 325.088 640.36 325.088 685.263 325.088 721.665 360.44 721.665 404.093 721.665 447.745 685.263 483.098 640.36 483.098 595.457 483.098 559.055 447.735 559.055 404.093Z" stroke="#040000" stroke-width="1.00006" stroke-miterlimit="8" fill="none"/><g clip-path="url(#clip4)"><path d="M531.533 404.273C531.533 345.809 580.136 298.426 640.08 298.426 700.024 298.426 748.607 345.809 748.607 404.273 748.607 462.736 700.014 510.119 640.06 510.119 580.106 510.119 531.533 462.726 531.533 404.273Z" stroke="#F0D596" stroke-width="1.50009" stroke-miterlimit="8" fill="none"/></g></g></g></g></g></svg>